<svg xmlns="http://www.w3.org/2000/svg" viewBox="0 0 1529.58 1658.95"><defs><style>.cls-1{opacity:0.8;}.cls-2{fill:#7ea8b0;}.cls-3{fill:#face6f;}.cls-4{fill:#e7b43a;}</style></defs><title>faling_star</title><g id="Layer_2" data-name="Layer 2"><g id="Layer_1-2" data-name="Layer 1"><g class="cls-1"><path class="cls-2" d="M343.1,757.82,408.51,736l21.79-65.41a16.25,16.25,0,0,1,30.83,0L482.93,736l65.4,21.79a16.25,16.25,0,0,1,0,30.83l-65.4,21.8-21.8,65.4a16.24,16.24,0,0,1-30.82,0l-21.8-65.4-65.41-21.8a16.24,16.24,0,0,1,0-30.82Z"/><path class="cls-2" d="M33.87,1383.82l99.33-33.1,33.1-99.34a24.68,24.68,0,0,1,46.82,0l33.11,99.34,99.33,33.09a24.68,24.68,0,0,1,0,46.82l-99.33,33.11-33.1,99.34a24.68,24.68,0,0,1-46.82,0l-33.11-99.34-99.33-33.11a24.67,24.67,0,0,1,0-46.81Z"/><path class="cls-2" d="M1503.18,333.63a94.07,94.07,0,0,0-133-133L429.48,1141.3a94.07,94.07,0,0,0,133,133Z"/><path class="cls-2" d="M782.65,1251.51a94.07,94.07,0,0,0,133,133L1386,914.18a94.07,94.07,0,0,0-133-133Z"/><path class="cls-2" d="M580.65,516.75a94.07,94.07,0,0,0,133,133L1184,179.42a94.07,94.07,0,0,0-133-133Z"/><path class="cls-2" d="M547.62,1512.22l74.32-24.77,24.76-74.32a18.46,18.46,0,0,1,35,0l24.77,74.32,74.32,24.76a18.47,18.47,0,0,1,0,35L706.5,1572l-24.77,74.32a18.46,18.46,0,0,1-35,0L621.94,1572l-74.32-24.77a18.46,18.46,0,0,1,0-35Z"/></g><path class="cls-3" d="M326.1,737.82,391.51,716l21.79-65.41a16.25,16.25,0,0,1,30.83,0L465.93,716l65.4,21.79a16.25,16.25,0,0,1,0,30.83l-65.4,21.8-21.8,65.4a16.24,16.24,0,0,1-30.82,0l-21.8-65.4-65.41-21.8a16.24,16.24,0,0,1,0-30.82Z"/><path class="cls-4" d="M16.87,1363.82l99.33-33.1,33.1-99.34a24.68,24.68,0,0,1,46.82,0l33.11,99.34,99.33,33.09a24.68,24.68,0,0,1,0,46.82l-99.33,33.11-33.1,99.34a24.68,24.68,0,0,1-46.82,0l-33.11-99.34-99.33-33.11a24.67,24.67,0,0,1,0-46.81Z"/><path class="cls-4" d="M1486.18,313.63a94.07,94.07,0,0,0-133-133L412.48,1121.3a94.07,94.07,0,0,0,133,133Z"/><path class="cls-3" d="M765.65,1231.51a94.07,94.07,0,0,0,133,133L1369,894.18a94.07,94.07,0,0,0-133-133Z"/><path class="cls-3" d="M563.65,496.75a94.07,94.07,0,0,0,133,133L1167,159.42a94.07,94.07,0,0,0-133-133Z"/><path class="cls-3" d="M530.62,1492.22l74.32-24.77,24.76-74.32a18.46,18.46,0,0,1,35,0l24.77,74.32,74.32,24.76a18.47,18.47,0,0,1,0,35L689.5,1552l-24.77,74.32a18.46,18.46,0,0,1-35,0L604.94,1552l-74.32-24.77a18.46,18.46,0,0,1,0-35Z"/></g></g></svg>