<svg xmlns="http://www.w3.org/2000/svg" viewBox="0 0 806.53 385.54"><defs><style>.cls-1{fill:#fff;}</style></defs><title>main_text</title><g id="Layer_2" data-name="Layer 2"><g id="Layer_1-2" data-name="Layer 1"><path class="cls-1" d="M58.05,85.3a3,3,0,0,0,2.75,1.79,2.84,2.84,0,0,0,.76-.1,109.11,109.11,0,0,0,24.31-9.7,86.26,86.26,0,0,0,17.68-12.54,88.77,88.77,0,0,0,17.59,11.81,109,109,0,0,0,22.72,8.73,3,3,0,0,0,3.54-1.79l6.12-15.3a3,3,0,0,0-1.84-4,148.8,148.8,0,0,1-17.92-7.16A51.24,51.24,0,0,1,121,48.59a12.42,12.42,0,0,1-3.46-5.3,23.09,23.09,0,0,1-1-7.14V27.93h28.62a3,3,0,0,0,3-3V8.78a3,3,0,0,0-3-3H81c-3,0-6.37-.14-10.06-.42A91.21,91.21,0,0,1,61,4.13a3,3,0,0,0-3.48,2.31L54.64,19.7a3,3,0,0,0,1.7,3.38,53.52,53.52,0,0,0,12.08,3.61,69.33,69.33,0,0,0,12.44,1.24H90.1v8.22a21.59,21.59,0,0,1-1,6.93,14.91,14.91,0,0,1-3.7,5.57,53.56,53.56,0,0,1-13.2,9.23,128.33,128.33,0,0,1-19.11,7.89,3,3,0,0,0-1.8,1.63,3,3,0,0,0,0,2.43Z"/><path class="cls-1" d="M134.64,34.62V50.43a3,3,0,0,0,3,3h25.05v30a3,3,0,0,0,3,3h20.06a3,3,0,0,0,3-3V4.7a3,3,0,0,0-3-3H165.69a3,3,0,0,0-3,3V31.62H137.64A3,3,0,0,0,134.64,34.62Z"/><path class="cls-1" d="M186.3,162.69a3,3,0,0,0,2.45-2.95V91.91a3,3,0,0,0-3-3H130.67a3,3,0,0,0-3,3V142a3,3,0,0,0-2.4-.5,68.45,68.45,0,0,1-8.86,1.21c-3.49.28-6.76.42-9.71.42s-5.63-.06-8.19-.17c-1.42-.06-2.73-.14-3.94-.24v-5.32h29a3,3,0,0,0,3-3V91.91a3,3,0,0,0-3-3h-52a3,3,0,0,0-3,3v16.15a3,3,0,0,0,3,3h29.64v4.54H71.51a3,3,0,0,0-3,3v41.31a3,3,0,0,0,2.39,2.94,107.68,107.68,0,0,0,12.87,1.67c5.11.4,10.19.6,15.11.6s9.76-.23,14.73-.68a105.84,105.84,0,0,0,13-1.92,2.94,2.94,0,0,0,1.61-1,3,3,0,0,0,1.91,1.28,106.87,106.87,0,0,0,13.47,1.75c4.81.35,9.68.52,14.49.52s9.85-.23,15-.69S182.61,163.38,186.3,162.69Zm-24.52-19.55h-8.73V111.06h9.64v32.07Z"/><rect class="cls-1" x="216.75" y="83.3" width="143.7" height="22.15" rx="3" ry="3"/><path class="cls-1" d="M257.8,67.31a39.12,39.12,0,0,0,13.53,8.21,54.92,54.92,0,0,0,35.22,0,39.12,39.12,0,0,0,13.53-8.21,37.11,37.11,0,0,0,8.6-12.48,39.84,39.84,0,0,0,3-15.62,39.84,39.84,0,0,0-3-15.62,37.11,37.11,0,0,0-8.6-12.48A39.12,39.12,0,0,0,306.55,2.9a54.92,54.92,0,0,0-35.22,0,38.93,38.93,0,0,0-13.53,8.21,37,37,0,0,0-8.6,12.48,39.84,39.84,0,0,0-3,15.62,39.84,39.84,0,0,0,3,15.62A37,37,0,0,0,257.8,67.31Zm14.42-28.1a16.93,16.93,0,0,1,4.61-12.29c3.06-3.21,7-4.77,12.11-4.77s9,1.56,12.11,4.77a16.94,16.94,0,0,1,4.61,12.29,16.93,16.93,0,0,1-4.61,12.29c-3.06,3.21-7,4.77-12.11,4.77s-9.05-1.56-12.11-4.77A16.91,16.91,0,0,1,272.22,39.21Z"/><path class="cls-1" d="M345.48,161.18a3,3,0,0,0,2.56-3v-15.3a3,3,0,0,0-1-2.22,3,3,0,0,0-2.31-.77c-3.32.34-7,.59-10.88.76l-12.32.51c-4.13.16-8.42.28-12.75.33s-8.57.09-12.54.09c-3.64,0-7.43,0-11.26-.08l-11-.17c-3.52-.06-6.82-.18-9.83-.34-1.9-.1-3.65-.22-5.24-.35V115a3,3,0,0,0-3-3h-20.4a3,3,0,0,0-3,3v43.35a3,3,0,0,0,2.6,3c3.47.46,7.36.84,11.59,1.13s8.73.51,13.35.68,9.41.31,14.41.43,10,.17,14.94.17c4.69,0,9.77-.06,15.11-.17s10.46-.29,15.46-.51,9.7-.49,14.08-.77S342.34,161.64,345.48,161.18Z"/><path class="cls-1" d="M479.1,73.47a43.4,43.4,0,0,0,14.78,8.68A56.47,56.47,0,0,0,513,85.22a56.88,56.88,0,0,0,19-3.06,43.3,43.3,0,0,0,14.87-8.69A39,39,0,0,0,556.47,60a43.64,43.64,0,0,0,3.39-17.34,43,43,0,0,0-3.4-17.26,40.16,40.16,0,0,0-9.55-13.5A42.9,42.9,0,0,0,532,3.06a60.86,60.86,0,0,0-38.14,0,42.85,42.85,0,0,0-14.8,8.78,40,40,0,0,0-9.55,13.5,43,43,0,0,0-3.39,17.26,43.69,43.69,0,0,0,3.38,17.33A38.84,38.84,0,0,0,479.1,73.47ZM513,22.15a22,22,0,0,1,8.46,1.56A20.64,20.64,0,0,1,528,27.93a18.82,18.82,0,0,1,4.25,6.39,22.81,22.81,0,0,1,0,16.58A18.92,18.92,0,0,1,528,57.29a20.64,20.64,0,0,1-6.53,4.22,23.75,23.75,0,0,1-16.93,0A20.53,20.53,0,0,1,498,57.29a18.82,18.82,0,0,1-4.25-6.39,21.73,21.73,0,0,1-1.55-8.29,21.55,21.55,0,0,1,1.56-8.29A18.65,18.65,0,0,1,498,27.93a20.53,20.53,0,0,1,6.53-4.22A22,22,0,0,1,513,22.15Z"/><path class="cls-1" d="M444.15,111.06H500V156a3,3,0,0,0,3,3H523a3,3,0,0,0,3-3V111.06h55.82a3,3,0,0,0,3-3V91.91a3,3,0,0,0-3-3H444.15a3,3,0,0,0-3,3v16.15A3,3,0,0,0,444.15,111.06Z"/><path class="cls-1" d="M671,119.56c3.87-.11,7.72-.25,11.45-.43s7.14-.4,10.32-.69,6-.6,8.19-1a3,3,0,0,0,2.53-3V99.22a3,3,0,0,0-3.28-3c-2.29.22-4.94.42-7.88.59s-6.09.31-9.2.42-6.46.2-9.72.26c-8.44.15-16.83.09-25-.09-3.81-.08-7.24-.23-10.24-.44V72.13H693a3,3,0,0,0,3-3V9.63a3,3,0,0,0-3-3H636.58c-3,0-6.37-.14-10.06-.42a91.21,91.21,0,0,1-10-1.23,3,3,0,0,0-3.48,2.31l-2.89,13.26a3,3,0,0,0,1.71,3.38A53.27,53.27,0,0,0,624,27.54a69.51,69.51,0,0,0,12.44,1.24H670V50h-54.8a3,3,0,0,0-3,3v61.71a3,3,0,0,0,2.58,3c2.46.35,5.49.67,9,1s7.32.51,11.34.68,8.13.29,12.32.34,8.16.09,12.11.09C663.21,119.73,667.07,119.67,671,119.56Z"/><rect class="cls-1" x="713.48" y="1.7" width="26.06" height="153.05" rx="3" ry="3"/><path class="cls-1" d="M134.75,217.7H114.69a3,3,0,0,0-3,3v34.57h-25a3,3,0,0,0-3,3v15.47a3,3,0,0,0,3,3h25v35.08a3,3,0,0,0,.54,1.72c-.71-.29-1.43-.56-2.17-.81a56.74,56.74,0,0,0-18.66-2.89,56.64,56.64,0,0,0-18.76,2.89,41.12,41.12,0,0,0-14,8.08A35.72,35.72,0,0,0,49.81,333a36.93,36.93,0,0,0,0,29.44,35.72,35.72,0,0,0,8.81,12.16,41.12,41.12,0,0,0,14,8.08,56.64,56.64,0,0,0,18.76,2.89,56.85,56.85,0,0,0,18.67-2.89,41.17,41.17,0,0,0,14.11-8.08A35.59,35.59,0,0,0,133,362.41,36.93,36.93,0,0,0,133,333a35.59,35.59,0,0,0-8.81-12.16,38.2,38.2,0,0,0-9-6h19.61a3,3,0,0,0,3-3V220.7A3,3,0,0,0,134.75,217.7ZM110,347.69a14.74,14.74,0,0,1-4.78,11c-3.25,3.15-7.77,4.68-13.81,4.68s-10.56-1.53-13.81-4.68a15.09,15.09,0,0,1,0-22c3.25-3.15,7.77-4.68,13.81-4.68s10.56,1.53,13.81,4.68A14.74,14.74,0,0,1,110,347.69Z"/><path class="cls-1" d="M70.05,300.2a109.17,109.17,0,0,0,23.5,8.92,3,3,0,0,0,3.54-1.83l5.78-15A3,3,0,0,0,101,288.4a153.85,153.85,0,0,1-18-7.17,53.67,53.67,0,0,1-12.88-8.35c-3.12-2.83-4.63-6.67-4.63-11.72v-9.75h30a3,3,0,0,0,3-3V232.26a3,3,0,0,0-3-3H65.33V212.71a3,3,0,0,0-3-3H42.44a3,3,0,0,0-3,3v16.55H28.84c-3,0-6.37-.14-10.06-.42a91.21,91.21,0,0,1-10-1.23,3,3,0,0,0-3.48,2.31L2.45,243.18a3,3,0,0,0,1.7,3.38,53.52,53.52,0,0,0,12.08,3.61,69.33,69.33,0,0,0,12.44,1.24h10.6v9.75a19.55,19.55,0,0,1-1,6.55A14,14,0,0,1,34.57,273a59.47,59.47,0,0,1-13.35,9.36A127.42,127.42,0,0,1,2,290.45a3,3,0,0,0-1.79,4l6.63,15.3a3,3,0,0,0,2.75,1.81,3.12,3.12,0,0,0,.85-.12A117.82,117.82,0,0,0,35.41,301a92.14,92.14,0,0,0,17.23-12.46A90.7,90.7,0,0,0,70.05,300.2Z"/><path class="cls-1" d="M178.91,228.22,176,241.48a3,3,0,0,0,1.7,3.38,53.36,53.36,0,0,0,12.08,3.61,69.42,69.42,0,0,0,12.44,1.24h22.5v.57a13.74,13.74,0,0,1-1.36,6.42,11.41,11.41,0,0,1-4.92,4.39,86.77,86.77,0,0,1-18.56,7.21,195.09,195.09,0,0,1-23.77,5,3,3,0,0,0-2.48,3.65l3.74,16.15a3,3,0,0,0,3.18,2.31,120.85,120.85,0,0,0,16-2.53c5.34-1.21,10.66-2.66,15.81-4.32a131,131,0,0,0,14.79-5.74A92.42,92.42,0,0,0,237.94,277a90.16,90.16,0,0,0,10.91,5.85,139.16,139.16,0,0,0,14.76,5.74c5.1,1.66,10.43,3.11,15.83,4.32a123.71,123.71,0,0,0,16,2.53h.27a3,3,0,0,0,2.93-2.35l3.57-16.15a3,3,0,0,0-2.49-3.62,194.29,194.29,0,0,1-23.77-5,86.92,86.92,0,0,1-18.6-7.23,11.39,11.39,0,0,1-4.89-4.37,13.69,13.69,0,0,1-1.35-6.42v-.57H294a3,3,0,0,0,3-3V230.56a3,3,0,0,0-3-3H251V212.37a3,3,0,0,0-3-3H227.91a3,3,0,0,0-3,3v15.19h-22.5c-3,0-6.37-.14-10.06-.42a91.21,91.21,0,0,1-10-1.23A3,3,0,0,0,178.91,228.22Z"/><path class="cls-1" d="M293.74,355.92c-3.33.34-7,.59-10.88.76l-12.32.51c-4.13.16-8.42.28-12.75.34s-8.6.08-12.54.08c-3.62,0-7.41,0-11.26-.08l-11-.17c-3.52-.06-6.83-.18-9.83-.34-1.9-.1-3.65-.22-5.24-.35V333.24a3,3,0,0,0-3-3h-20.4a3,3,0,0,0-3,3v41.14a3,3,0,0,0,2.6,3c3.47.46,7.36.84,11.59,1.13s8.71.51,13.35.68,9.41.31,14.41.43,10,.17,14.94.17c4.67,0,9.75-.06,15.11-.17s10.46-.29,15.46-.51,9.68-.49,14.08-.77,8.24-.67,11.38-1.13a3,3,0,0,0,2.56-3v-15.3a3,3,0,0,0-1-2.22A3,3,0,0,0,293.74,355.92Z"/><path class="cls-1" d="M306.45,297.6H168.75a3,3,0,0,0-3,3v16.15a3,3,0,0,0,3,3h56.33v26.07a3,3,0,0,0,3,3h20.06a3,3,0,0,0,3-3V319.75h55.31a3,3,0,0,0,3-3V300.6A3,3,0,0,0,306.45,297.6Z"/><path class="cls-1" d="M379,284.35A97.27,97.27,0,0,0,395.5,297,111.24,111.24,0,0,0,418,307.36a3,3,0,0,0,3.67-1.58l7.14-15.3a3,3,0,0,0-1.66-4.08,115.88,115.88,0,0,1-17.73-8.28,65.29,65.29,0,0,1-13.17-10.07,12.93,12.93,0,0,1-3.41-5.53,26.53,26.53,0,0,1-1-7.48v-10.6h28.62a3,3,0,0,0,3-3V225.29a3,3,0,0,0-3-3H356.43c-3,0-6.37-.14-10.07-.42a91.32,91.32,0,0,1-9.95-1.23,3,3,0,0,0-3.48,2.31L330,236.21a3,3,0,0,0,1.7,3.38,53.43,53.43,0,0,0,12.07,3.61,69.53,69.53,0,0,0,12.45,1.24h9.24V255a22.31,22.31,0,0,1-1,7.11,19.16,19.16,0,0,1-3.69,6.07,57.47,57.47,0,0,1-13.25,10.88,125.46,125.46,0,0,1-19.26,9.71,3,3,0,0,0-1.56,4.11l7.65,15.47A3,3,0,0,0,338,309.9a108.05,108.05,0,0,0,24.22-11.72A95.57,95.57,0,0,0,379,284.35Z"/><path class="cls-1" d="M461.15,217.7H441.09a3,3,0,0,0-3,3v29.13H413a3,3,0,0,0-3,3V269a3,3,0,0,0,3,3h25v38.48a3,3,0,0,0,.62,1.83c-.7-.29-1.4-.56-2.13-.83a60.7,60.7,0,0,0-37.57,0,42.3,42.3,0,0,0-14.08,8.25,35,35,0,0,0-8.83,12.37,39.26,39.26,0,0,0,0,29.86,34.91,34.91,0,0,0,8.83,12.37A42.22,42.22,0,0,0,399,382.55a60.5,60.5,0,0,0,37.57,0,42.27,42.27,0,0,0,14.09-8.24,34.8,34.8,0,0,0,8.82-12.37,39.13,39.13,0,0,0,0-29.86,34.8,34.8,0,0,0-8.82-12.37,40,40,0,0,0-9.36-6.25h19.84a3,3,0,0,0,3-3V220.7A3,3,0,0,0,461.15,217.7ZM436.39,347a15.56,15.56,0,0,1-4.8,11.63c-3.25,3.2-7.76,4.75-13.79,4.75s-10.55-1.55-13.79-4.75a16.49,16.49,0,0,1,0-23.26c3.24-3.2,7.75-4.75,13.79-4.75s10.54,1.55,13.79,4.75A15.56,15.56,0,0,1,436.39,347Z"/><path class="cls-1" d="M622.65,217.7H602.59a3,3,0,0,0-3,3v39.5H580.43V225.8a3,3,0,0,0-3-3H520c-3,0-6.37-.14-10.07-.42a91.21,91.21,0,0,1-10-1.23,3,3,0,0,0-3.47,2.31l-2.9,13.26a3,3,0,0,0,1.71,3.38,53.43,53.43,0,0,0,12.07,3.61A69.53,69.53,0,0,0,519.8,245h34.57v34.57c0,3.46-.09,7.51-.26,12s-.36,9.37-.59,14.34-.56,9.86-1,14.74-.9,9.38-1.36,13.46a3,3,0,0,0,.65,2.21,3,3,0,0,0,2,1.1l19.56,2a3,3,0,0,0,3.28-2.58c.57-4.21,1.09-8.86,1.54-13.81s.83-10,1.12-15,.53-10,.76-14.91c.18-3.82.29-7.44.33-10.82h19.18v85.4a3,3,0,0,0,3,3h20.06a3,3,0,0,0,3-3v-147A3,3,0,0,0,622.65,217.7Z"/><path class="cls-1" d="M702.83,282.08a111.61,111.61,0,0,0,15.79,13A116.26,116.26,0,0,0,741,307a3,3,0,0,0,3.76-1.36l8-14.79a3,3,0,0,0,.19-2.41,3,3,0,0,0-1.64-1.77A121.46,121.46,0,0,1,733.26,277a66.39,66.39,0,0,1-12.84-10.54,17,17,0,0,1-3.55-6,21.86,21.86,0,0,1-1.12-7v-8.73h29a3,3,0,0,0,3-3V225.63a3,3,0,0,0-3-3H680.28c-3,0-6.37-.14-10.07-.42a91.21,91.21,0,0,1-10-1.23,3,3,0,0,0-3.48,2.31l-2.89,13.26a3,3,0,0,0,1.71,3.38,53.27,53.27,0,0,0,12.07,3.61,69.53,69.53,0,0,0,12.45,1.24h9.24v8.73a23.72,23.72,0,0,1-1,6.87,16.54,16.54,0,0,1-3.68,6.07A83.15,83.15,0,0,1,671.15,278,122.84,122.84,0,0,1,652,288.87a3,3,0,0,0-1.35,4.21l8.67,15.13a3,3,0,0,0,2.61,1.51,3.11,3.11,0,0,0,1.18-.24,123.41,123.41,0,0,0,23.95-13.42A104.18,104.18,0,0,0,702.83,282.08Z"/><path class="cls-1" d="M803.53,249.66H784.6v-29a3,3,0,0,0-3-3H761.54a3,3,0,0,0-3,3v89.42a3,3,0,0,0,.6,1.8c-.75-.31-1.51-.6-2.29-.88a57.93,57.93,0,0,0-36.2,0,41.4,41.4,0,0,0-13.91,8.16,36.53,36.53,0,0,0-9,12.4,38.55,38.55,0,0,0,0,30.48,36.53,36.53,0,0,0,9,12.4,41.35,41.35,0,0,0,13.92,8.16,57.93,57.93,0,0,0,36.2,0,41.4,41.4,0,0,0,13.91-8.16,36.53,36.53,0,0,0,9-12.4,38.44,38.44,0,0,0,0-30.48,36.53,36.53,0,0,0-9-12.4,39.25,39.25,0,0,0-9-6.08H781.6a3,3,0,0,0,3-3V271.81h18.93a3,3,0,0,0,3-3V252.66A3,3,0,0,0,803.53,249.66Zm-46.69,97.18a15.79,15.79,0,0,1-4.8,11.8c-3.25,3.2-7.59,4.75-13.28,4.75s-10-1.55-13.29-4.75a16.92,16.92,0,0,1,0-23.6c3.24-3.2,7.58-4.75,13.28-4.75s10,1.55,13.28,4.75A15.79,15.79,0,0,1,756.84,346.84Z"/></g></g></svg>